<mxfile host="app.diagrams.net" modified="2022-02-18T09:15:21.367Z" agent="5.0 (X11; Linux x86_64) AppleWebKit/537.36 (KHTML, like Gecko) Chrome/94.0.4606.61 Safari/537.36" etag="S5j2WOyhj3ETfpLNoz2u" version="16.6.1" type="github">
  <diagram id="39u0HrkMN_B9pR2XxElM" name="Page-1">
    <mxGraphModel dx="2177" dy="773" grid="1" gridSize="10" guides="1" tooltips="1" connect="1" arrows="1" fold="1" page="1" pageScale="1" pageWidth="827" pageHeight="1169" math="0" shadow="0">
      <root>
        <mxCell id="0" />
        <mxCell id="1" parent="0" />
        <mxCell id="-lyPfTTx7tUpVFRS2BaE-46" value="" style="rounded=0;whiteSpace=wrap;html=1;fontSize=14;fontColor=#EA6B66;strokeColor=#999999;fillColor=none;" vertex="1" parent="1">
          <mxGeometry x="-200" y="200" width="1240" height="620" as="geometry" />
        </mxCell>
        <mxCell id="-lyPfTTx7tUpVFRS2BaE-1" value="&lt;font style=&quot;font-size: 16px&quot;&gt;&lt;b&gt;char&lt;/b&gt;&lt;/font&gt;" style="rounded=1;whiteSpace=wrap;html=1;" vertex="1" parent="1">
          <mxGeometry x="80" y="240" width="120" height="40" as="geometry" />
        </mxCell>
        <mxCell id="-lyPfTTx7tUpVFRS2BaE-2" value="&lt;font style=&quot;font-size: 16px&quot;&gt;&lt;b&gt;long&lt;/b&gt;&lt;/font&gt;" style="rounded=1;whiteSpace=wrap;html=1;" vertex="1" parent="1">
          <mxGeometry x="560" y="240" width="120" height="40" as="geometry" />
        </mxCell>
        <mxCell id="-lyPfTTx7tUpVFRS2BaE-3" value="&lt;font style=&quot;font-size: 16px&quot;&gt;&lt;b&gt;int&lt;/b&gt;&lt;/font&gt;" style="rounded=1;whiteSpace=wrap;html=1;" vertex="1" parent="1">
          <mxGeometry x="400" y="240" width="120" height="40" as="geometry" />
        </mxCell>
        <mxCell id="-lyPfTTx7tUpVFRS2BaE-4" value="&lt;font style=&quot;font-size: 16px&quot;&gt;&lt;b&gt;short&lt;/b&gt;&lt;/font&gt;" style="rounded=1;whiteSpace=wrap;html=1;" vertex="1" parent="1">
          <mxGeometry x="240" y="240" width="120" height="40" as="geometry" />
        </mxCell>
        <mxCell id="-lyPfTTx7tUpVFRS2BaE-5" value="&lt;font style=&quot;font-size: 16px&quot;&gt;&lt;b&gt;long long&lt;/b&gt;&lt;/font&gt;" style="rounded=1;whiteSpace=wrap;html=1;fillColor=#bac8d3;strokeColor=#23445d;" vertex="1" parent="1">
          <mxGeometry x="720" y="240" width="120" height="40" as="geometry" />
        </mxCell>
        <mxCell id="-lyPfTTx7tUpVFRS2BaE-6" value="&lt;font style=&quot;font-size: 16px&quot; color=&quot;#999999&quot;&gt;&lt;b&gt;signed&lt;/b&gt;&lt;/font&gt;" style="rounded=1;whiteSpace=wrap;html=1;" vertex="1" parent="1">
          <mxGeometry x="160" y="360" width="120" height="40" as="geometry" />
        </mxCell>
        <mxCell id="-lyPfTTx7tUpVFRS2BaE-7" value="&lt;font style=&quot;font-size: 16px&quot; color=&quot;#ea6b66&quot;&gt;&lt;b&gt;unsigned&lt;/b&gt;&lt;/font&gt;" style="rounded=1;whiteSpace=wrap;html=1;" vertex="1" parent="1">
          <mxGeometry x="640" y="360" width="120" height="40" as="geometry" />
        </mxCell>
        <mxCell id="-lyPfTTx7tUpVFRS2BaE-8" value="&lt;font style=&quot;font-size: 12px&quot;&gt;&lt;b&gt;&lt;font color=&quot;#999999&quot; style=&quot;font-size: 12px&quot;&gt;signed&lt;br&gt;&lt;/font&gt;char&lt;/b&gt;&lt;/font&gt;" style="rounded=1;whiteSpace=wrap;html=1;" vertex="1" parent="1">
          <mxGeometry x="-80" y="480" width="80" height="40" as="geometry" />
        </mxCell>
        <mxCell id="-lyPfTTx7tUpVFRS2BaE-15" value="&lt;font style=&quot;font-size: 12px&quot;&gt;&lt;b&gt;&lt;font color=&quot;#999999&quot; style=&quot;font-size: 12px&quot;&gt;signed&lt;br&gt;&lt;/font&gt;short&lt;/b&gt;&lt;/font&gt;" style="rounded=1;whiteSpace=wrap;html=1;" vertex="1" parent="1">
          <mxGeometry x="20" y="480" width="80" height="40" as="geometry" />
        </mxCell>
        <mxCell id="-lyPfTTx7tUpVFRS2BaE-16" value="&lt;font style=&quot;font-size: 12px&quot;&gt;&lt;b&gt;&lt;font color=&quot;#999999&quot; style=&quot;font-size: 12px&quot;&gt;signed&lt;br&gt;&lt;/font&gt;long&lt;br&gt;&lt;/b&gt;&lt;/font&gt;" style="rounded=1;whiteSpace=wrap;html=1;" vertex="1" parent="1">
          <mxGeometry x="220" y="480" width="80" height="40" as="geometry" />
        </mxCell>
        <mxCell id="-lyPfTTx7tUpVFRS2BaE-17" value="&lt;font style=&quot;font-size: 12px&quot;&gt;&lt;b&gt;&lt;font color=&quot;#999999&quot; style=&quot;font-size: 12px&quot;&gt;signed&lt;br&gt;&lt;/font&gt;int&lt;/b&gt;&lt;/font&gt;" style="rounded=1;whiteSpace=wrap;html=1;" vertex="1" parent="1">
          <mxGeometry x="120" y="480" width="80" height="40" as="geometry" />
        </mxCell>
        <mxCell id="-lyPfTTx7tUpVFRS2BaE-18" value="&lt;font style=&quot;font-size: 12px&quot;&gt;&lt;b&gt;&lt;font color=&quot;#999999&quot; style=&quot;font-size: 12px&quot;&gt;signed&lt;br&gt;&lt;/font&gt;long long&lt;br&gt;&lt;/b&gt;&lt;/font&gt;" style="rounded=1;whiteSpace=wrap;html=1;fillColor=#bac8d3;strokeColor=#23445d;" vertex="1" parent="1">
          <mxGeometry x="320" y="480" width="80" height="40" as="geometry" />
        </mxCell>
        <mxCell id="-lyPfTTx7tUpVFRS2BaE-24" value="&lt;font style=&quot;font-size: 12px&quot;&gt;&lt;b&gt;&lt;font style=&quot;font-size: 12px&quot;&gt;&lt;font color=&quot;#ea6b66&quot;&gt;unsigned&lt;/font&gt;&lt;br&gt;&lt;/font&gt;char&lt;/b&gt;&lt;/font&gt;" style="rounded=1;whiteSpace=wrap;html=1;" vertex="1" parent="1">
          <mxGeometry x="520" y="480" width="80" height="40" as="geometry" />
        </mxCell>
        <mxCell id="-lyPfTTx7tUpVFRS2BaE-25" value="&lt;font style=&quot;font-size: 12px&quot;&gt;&lt;b&gt;&lt;font style=&quot;font-size: 12px&quot; color=&quot;#ea6b66&quot;&gt;unsigned&lt;br&gt;&lt;/font&gt;short&lt;/b&gt;&lt;/font&gt;" style="rounded=1;whiteSpace=wrap;html=1;" vertex="1" parent="1">
          <mxGeometry x="620" y="480" width="80" height="40" as="geometry" />
        </mxCell>
        <mxCell id="-lyPfTTx7tUpVFRS2BaE-26" value="&lt;font style=&quot;font-size: 12px&quot;&gt;&lt;b&gt;&lt;font style=&quot;font-size: 12px&quot;&gt;&lt;font color=&quot;#ea6b66&quot;&gt;unsigned&lt;/font&gt;&lt;br&gt;&lt;/font&gt;long&lt;br&gt;&lt;/b&gt;&lt;/font&gt;" style="rounded=1;whiteSpace=wrap;html=1;" vertex="1" parent="1">
          <mxGeometry x="820" y="480" width="80" height="40" as="geometry" />
        </mxCell>
        <mxCell id="-lyPfTTx7tUpVFRS2BaE-27" value="&lt;font style=&quot;font-size: 12px&quot;&gt;&lt;b&gt;&lt;font style=&quot;font-size: 12px&quot;&gt;&lt;font color=&quot;#ea6b66&quot;&gt;unsigned&lt;/font&gt;&lt;br&gt;&lt;/font&gt;int&lt;/b&gt;&lt;/font&gt;" style="rounded=1;whiteSpace=wrap;html=1;" vertex="1" parent="1">
          <mxGeometry x="720" y="480" width="80" height="40" as="geometry" />
        </mxCell>
        <mxCell id="-lyPfTTx7tUpVFRS2BaE-28" value="&lt;font style=&quot;font-size: 12px&quot;&gt;&lt;b&gt;&lt;font style=&quot;font-size: 12px&quot;&gt;&lt;font color=&quot;#ea6b66&quot;&gt;unsigned&lt;/font&gt;&lt;br&gt;&lt;/font&gt;long long&lt;br&gt;&lt;/b&gt;&lt;/font&gt;" style="rounded=1;whiteSpace=wrap;html=1;fillColor=#bac8d3;strokeColor=#23445d;" vertex="1" parent="1">
          <mxGeometry x="920" y="480" width="80" height="40" as="geometry" />
        </mxCell>
        <mxCell id="-lyPfTTx7tUpVFRS2BaE-29" value="&lt;b&gt;int8_t&lt;/b&gt;" style="rounded=1;whiteSpace=wrap;html=1;fillColor=#f8cecc;strokeColor=#b85450;" vertex="1" parent="1">
          <mxGeometry x="-80" y="600" width="80" height="40" as="geometry" />
        </mxCell>
        <mxCell id="-lyPfTTx7tUpVFRS2BaE-34" value="&lt;b&gt;int16_t&lt;/b&gt;" style="rounded=1;whiteSpace=wrap;html=1;fillColor=#f8cecc;strokeColor=#b85450;" vertex="1" parent="1">
          <mxGeometry x="20" y="600" width="80" height="40" as="geometry" />
        </mxCell>
        <mxCell id="-lyPfTTx7tUpVFRS2BaE-35" value="&lt;b&gt;int32_t&lt;/b&gt;" style="rounded=1;whiteSpace=wrap;html=1;fillColor=#f8cecc;strokeColor=#b85450;" vertex="1" parent="1">
          <mxGeometry x="120" y="600" width="80" height="40" as="geometry" />
        </mxCell>
        <mxCell id="-lyPfTTx7tUpVFRS2BaE-36" value="&lt;b&gt;int64_t&lt;/b&gt;" style="rounded=1;whiteSpace=wrap;html=1;fillColor=#f8cecc;strokeColor=#b85450;" vertex="1" parent="1">
          <mxGeometry x="220" y="600" width="80" height="40" as="geometry" />
        </mxCell>
        <mxCell id="-lyPfTTx7tUpVFRS2BaE-37" value="&lt;b&gt;uint8_t&lt;/b&gt;" style="rounded=1;whiteSpace=wrap;html=1;fillColor=#e1d5e7;strokeColor=#9673a6;" vertex="1" parent="1">
          <mxGeometry x="520" y="600" width="80" height="40" as="geometry" />
        </mxCell>
        <mxCell id="-lyPfTTx7tUpVFRS2BaE-38" value="&lt;b&gt;uint16_t&lt;/b&gt;" style="rounded=1;whiteSpace=wrap;html=1;fillColor=#e1d5e7;strokeColor=#9673a6;" vertex="1" parent="1">
          <mxGeometry x="620" y="600" width="80" height="40" as="geometry" />
        </mxCell>
        <mxCell id="-lyPfTTx7tUpVFRS2BaE-39" value="&lt;b&gt;uint32_t&lt;/b&gt;" style="rounded=1;whiteSpace=wrap;html=1;fillColor=#e1d5e7;strokeColor=#9673a6;" vertex="1" parent="1">
          <mxGeometry x="720" y="600" width="80" height="40" as="geometry" />
        </mxCell>
        <mxCell id="-lyPfTTx7tUpVFRS2BaE-40" value="&lt;b&gt;uint64_t&lt;/b&gt;" style="rounded=1;whiteSpace=wrap;html=1;fillColor=#e1d5e7;strokeColor=#9673a6;" vertex="1" parent="1">
          <mxGeometry x="820" y="600" width="80" height="40" as="geometry" />
        </mxCell>
        <mxCell id="-lyPfTTx7tUpVFRS2BaE-41" value="&lt;font style=&quot;font-size: 14px&quot;&gt;8-bit&lt;/font&gt;" style="rounded=1;whiteSpace=wrap;html=1;strokeColor=#999999;" vertex="1" parent="1">
          <mxGeometry x="80" y="160" width="120" height="40" as="geometry" />
        </mxCell>
        <mxCell id="-lyPfTTx7tUpVFRS2BaE-42" value="&lt;font style=&quot;font-size: 14px&quot;&gt;64-bit&lt;/font&gt;" style="rounded=1;whiteSpace=wrap;html=1;strokeColor=#999999;" vertex="1" parent="1">
          <mxGeometry x="560" y="160" width="120" height="40" as="geometry" />
        </mxCell>
        <mxCell id="-lyPfTTx7tUpVFRS2BaE-43" value="&lt;font size=&quot;1&quot;&gt;&lt;span style=&quot;font-size: 14px&quot;&gt;32-bit&lt;/span&gt;&lt;/font&gt;" style="rounded=1;whiteSpace=wrap;html=1;strokeColor=#999999;" vertex="1" parent="1">
          <mxGeometry x="400" y="160" width="120" height="40" as="geometry" />
        </mxCell>
        <mxCell id="-lyPfTTx7tUpVFRS2BaE-44" value="&lt;font size=&quot;1&quot;&gt;&lt;span style=&quot;font-size: 14px&quot;&gt;16-bit&lt;/span&gt;&lt;/font&gt;" style="rounded=1;whiteSpace=wrap;html=1;strokeColor=#999999;" vertex="1" parent="1">
          <mxGeometry x="240" y="160" width="120" height="40" as="geometry" />
        </mxCell>
        <mxCell id="-lyPfTTx7tUpVFRS2BaE-45" value="&lt;font size=&quot;1&quot;&gt;&lt;span style=&quot;font-size: 14px&quot;&gt;64-bit&lt;/span&gt;&lt;/font&gt;" style="rounded=1;whiteSpace=wrap;html=1;fillColor=#bac8d3;strokeColor=#999999;" vertex="1" parent="1">
          <mxGeometry x="720" y="160" width="120" height="40" as="geometry" />
        </mxCell>
        <mxCell id="-lyPfTTx7tUpVFRS2BaE-49" value="" style="endArrow=none;dashed=1;html=1;rounded=0;fontSize=14;fontColor=#EA6B66;entryX=0.999;entryY=0.189;entryDx=0;entryDy=0;exitX=0.001;exitY=0.188;exitDx=0;exitDy=0;exitPerimeter=0;entryPerimeter=0;" edge="1" parent="1" source="-lyPfTTx7tUpVFRS2BaE-46" target="-lyPfTTx7tUpVFRS2BaE-46">
          <mxGeometry width="50" height="50" relative="1" as="geometry">
            <mxPoint x="-250" y="480" as="sourcePoint" />
            <mxPoint x="-200" y="430" as="targetPoint" />
          </mxGeometry>
        </mxCell>
        <mxCell id="-lyPfTTx7tUpVFRS2BaE-50" value="" style="endArrow=none;dashed=1;html=1;rounded=0;fontSize=14;fontColor=#EA6B66;entryX=1;entryY=0.25;entryDx=0;entryDy=0;exitX=0;exitY=0.375;exitDx=0;exitDy=0;exitPerimeter=0;" edge="1" parent="1" source="-lyPfTTx7tUpVFRS2BaE-46">
          <mxGeometry width="50" height="50" relative="1" as="geometry">
            <mxPoint x="-120" y="439.5" as="sourcePoint" />
            <mxPoint x="1040" y="439.5" as="targetPoint" />
          </mxGeometry>
        </mxCell>
        <mxCell id="-lyPfTTx7tUpVFRS2BaE-51" value="" style="endArrow=none;dashed=1;html=1;rounded=0;fontSize=14;fontColor=#EA6B66;entryX=1;entryY=0.25;entryDx=0;entryDy=0;exitX=0;exitY=0.564;exitDx=0;exitDy=0;exitPerimeter=0;" edge="1" parent="1" source="-lyPfTTx7tUpVFRS2BaE-46">
          <mxGeometry width="50" height="50" relative="1" as="geometry">
            <mxPoint x="-120" y="560" as="sourcePoint" />
            <mxPoint x="1040" y="560" as="targetPoint" />
          </mxGeometry>
        </mxCell>
        <mxCell id="-lyPfTTx7tUpVFRS2BaE-52" value="" style="shape=flexArrow;endArrow=classic;html=1;rounded=0;fontSize=14;fontColor=#EA6B66;dashed=1;dashPattern=1 1;" edge="1" parent="1">
          <mxGeometry width="50" height="50" relative="1" as="geometry">
            <mxPoint x="-40.5" y="530" as="sourcePoint" />
            <mxPoint x="-40.5" y="590" as="targetPoint" />
          </mxGeometry>
        </mxCell>
        <mxCell id="-lyPfTTx7tUpVFRS2BaE-53" value="" style="shape=flexArrow;endArrow=classic;html=1;rounded=0;fontSize=14;fontColor=#EA6B66;dashed=1;dashPattern=1 1;" edge="1" parent="1">
          <mxGeometry width="50" height="50" relative="1" as="geometry">
            <mxPoint x="160" y="530" as="sourcePoint" />
            <mxPoint x="160" y="590" as="targetPoint" />
          </mxGeometry>
        </mxCell>
        <mxCell id="-lyPfTTx7tUpVFRS2BaE-54" value="" style="shape=flexArrow;endArrow=classic;html=1;rounded=0;fontSize=14;fontColor=#EA6B66;dashed=1;dashPattern=1 1;" edge="1" parent="1">
          <mxGeometry width="50" height="50" relative="1" as="geometry">
            <mxPoint x="59.5" y="530" as="sourcePoint" />
            <mxPoint x="59.5" y="590" as="targetPoint" />
          </mxGeometry>
        </mxCell>
        <mxCell id="-lyPfTTx7tUpVFRS2BaE-55" value="" style="shape=flexArrow;endArrow=classic;html=1;rounded=0;fontSize=14;fontColor=#EA6B66;dashed=1;dashPattern=1 1;" edge="1" parent="1">
          <mxGeometry width="50" height="50" relative="1" as="geometry">
            <mxPoint x="259.5" y="530" as="sourcePoint" />
            <mxPoint x="259.5" y="590" as="targetPoint" />
          </mxGeometry>
        </mxCell>
        <mxCell id="-lyPfTTx7tUpVFRS2BaE-56" value="" style="shape=flexArrow;endArrow=classic;html=1;rounded=0;fontSize=14;fontColor=#EA6B66;dashed=1;dashPattern=1 1;" edge="1" parent="1">
          <mxGeometry width="50" height="50" relative="1" as="geometry">
            <mxPoint x="559" y="530" as="sourcePoint" />
            <mxPoint x="559" y="590" as="targetPoint" />
          </mxGeometry>
        </mxCell>
        <mxCell id="-lyPfTTx7tUpVFRS2BaE-57" value="" style="shape=flexArrow;endArrow=classic;html=1;rounded=0;fontSize=14;fontColor=#EA6B66;dashed=1;dashPattern=1 1;" edge="1" parent="1">
          <mxGeometry width="50" height="50" relative="1" as="geometry">
            <mxPoint x="659.5" y="530" as="sourcePoint" />
            <mxPoint x="659.5" y="590" as="targetPoint" />
          </mxGeometry>
        </mxCell>
        <mxCell id="-lyPfTTx7tUpVFRS2BaE-58" value="" style="shape=flexArrow;endArrow=classic;html=1;rounded=0;fontSize=14;fontColor=#EA6B66;dashed=1;dashPattern=1 1;" edge="1" parent="1">
          <mxGeometry width="50" height="50" relative="1" as="geometry">
            <mxPoint x="760" y="530" as="sourcePoint" />
            <mxPoint x="760" y="590" as="targetPoint" />
          </mxGeometry>
        </mxCell>
        <mxCell id="-lyPfTTx7tUpVFRS2BaE-59" value="" style="shape=flexArrow;endArrow=classic;html=1;rounded=0;fontSize=14;fontColor=#EA6B66;dashed=1;dashPattern=1 1;" edge="1" parent="1">
          <mxGeometry width="50" height="50" relative="1" as="geometry">
            <mxPoint x="859.5" y="530" as="sourcePoint" />
            <mxPoint x="859.5" y="590" as="targetPoint" />
          </mxGeometry>
        </mxCell>
        <mxCell id="-lyPfTTx7tUpVFRS2BaE-60" value="" style="endArrow=none;dashed=1;html=1;rounded=0;fontSize=14;fontColor=#EA6B66;entryX=1;entryY=0.25;entryDx=0;entryDy=0;exitX=0;exitY=0.564;exitDx=0;exitDy=0;exitPerimeter=0;" edge="1" parent="1">
          <mxGeometry width="50" height="50" relative="1" as="geometry">
            <mxPoint x="-200" y="680.96" as="sourcePoint" />
            <mxPoint x="1040" y="680" as="targetPoint" />
          </mxGeometry>
        </mxCell>
        <mxCell id="-lyPfTTx7tUpVFRS2BaE-61" value="" style="shape=curlyBracket;whiteSpace=wrap;html=1;rounded=1;flipH=1;fontSize=14;fontColor=#EA6B66;strokeColor=#999999;fillColor=none;rotation=90;" vertex="1" parent="1">
          <mxGeometry x="450" y="170" width="20" height="1080" as="geometry" />
        </mxCell>
        <mxCell id="-lyPfTTx7tUpVFRS2BaE-62" value="&lt;font style=&quot;font-size: 16px&quot;&gt;&lt;b&gt;&lt;i&gt;std::numeric_limits&amp;lt;T&amp;gt;&lt;/i&gt;&lt;/b&gt;&lt;/font&gt;" style="rounded=1;whiteSpace=wrap;html=1;fillColor=#dae8fc;strokeColor=#6c8ebf;" vertex="1" parent="1">
          <mxGeometry x="360" y="740" width="200" height="40" as="geometry" />
        </mxCell>
        <mxCell id="-lyPfTTx7tUpVFRS2BaE-63" value="&lt;b&gt;&lt;i&gt;&lt;font style=&quot;font-size: 19px&quot;&gt;cstdint&lt;/font&gt;&lt;/i&gt;&lt;/b&gt;" style="text;html=1;strokeColor=none;fillColor=none;align=center;verticalAlign=middle;whiteSpace=wrap;rounded=0;fontSize=14;fontColor=#EA6B66;" vertex="1" parent="1">
          <mxGeometry x="-190" y="605" width="60" height="30" as="geometry" />
        </mxCell>
        <mxCell id="-lyPfTTx7tUpVFRS2BaE-64" value="&lt;i&gt;&lt;b&gt;&lt;font style=&quot;font-size: 19px&quot;&gt;limits&lt;/font&gt;&lt;/b&gt;&lt;/i&gt;" style="text;html=1;strokeColor=none;fillColor=none;align=center;verticalAlign=middle;whiteSpace=wrap;rounded=0;fontSize=14;fontColor=#EA6B66;" vertex="1" parent="1">
          <mxGeometry x="-190" y="745" width="60" height="30" as="geometry" />
        </mxCell>
      </root>
    </mxGraphModel>
  </diagram>
</mxfile>
